<?xml version="1.0" standalone="no"?>
<!DOCTYPE svg PUBLIC "-//W3C//DTD SVG 20010904//EN"
 "http://www.w3.org/TR/2001/REC-SVG-20010904/DTD/svg10.dtd">
<svg version="1.0" xmlns="http://www.w3.org/2000/svg"
 width="400.000000pt" height="400.000000pt" viewBox="0 0 400.000000 400.000000"
 preserveAspectRatio="xMidYMid meet">
<metadata>
Created by potrace 1.11, written by Peter Selinger 2001-2013
</metadata>
<g transform="translate(0.000000,400.000000) scale(0.100000,-0.100000)"
fill="#000000" stroke="none">
<path d="M1963 3202 c-5 -9 -7 -26 -3 -37 4 -11 4 -28 -1 -37 -5 -10 -5 -19 0
-23 5 -3 6 -18 2 -33 -6 -24 -7 -48 -1 -54 6 -9 7 -38 0 -38 -8 0 -5 -48 4
-57 2 -3 1 -16 -4 -29 -5 -13 -6 -26 0 -29 5 -3 5 -18 0 -37 -5 -17 -6 -36 -3
-41 10 -16 10 -57 0 -57 -16 0 31 -63 48 -66 11 -2 15 2 11 13 -5 13 -4 14 8
4 12 -10 14 -9 12 6 -2 10 0 32 5 50 4 18 3 35 -1 38 -4 3 -4 21 0 40 4 20 4
38 -1 41 -5 3 -5 12 0 23 5 9 6 23 1 31 -4 7 -4 24 0 36 6 14 5 26 0 29 -5 3
-5 18 -1 33 6 24 7 48 1 55 -6 8 -7 37 0 37 8 0 5 43 -5 59 -3 6 -1 11 6 11 8
0 9 3 0 13 -6 8 -8 17 -4 20 3 4 2 8 -3 8 -5 1 -21 3 -35 4 -15 2 -29 -3 -36
-13z"/>
<path d="M759 2817 c-19 -15 -32 -47 -18 -47 6 0 8 -4 5 -9 -3 -5 5 -16 19
-25 14 -9 25 -23 25 -31 0 -8 7 -15 16 -15 10 0 14 -6 11 -14 -4 -10 0 -14 12
-11 15 3 18 -1 14 -18 -4 -16 -2 -18 5 -8 8 11 11 10 16 -7 4 -11 14 -23 22
-26 8 -3 12 -11 8 -17 -4 -8 1 -9 16 -4 14 4 20 3 16 -3 -7 -11 26 -52 43 -52
6 0 11 -10 11 -21 0 -19 2 -20 17 -8 10 8 14 9 10 2 -4 -6 0 -16 9 -21 9 -5
17 -13 17 -18 1 -5 6 -8 10 -6 5 1 5 -2 2 -8 -4 -7 2 -14 14 -17 11 -3 19 -9
16 -13 -3 -4 4 -10 15 -13 11 -3 20 -1 20 5 0 5 4 7 8 4 5 -3 16 3 24 14 14
16 14 19 2 24 -8 3 -14 11 -14 17 0 13 -38 49 -52 49 -4 0 -8 5 -8 10 0 16
-47 60 -54 52 -4 -3 -4 1 0 11 5 13 1 17 -16 17 -11 0 -19 4 -16 9 3 5 -6 16
-20 26 -15 10 -23 22 -20 31 3 8 1 14 -4 14 -6 0 -10 -6 -10 -12 0 -9 -3 -8
-9 2 -6 8 -7 18 -5 22 3 4 0 8 -6 8 -5 0 -25 14 -43 32 -17 17 -25 27 -17 23
13 -8 13 -6 1 8 -7 9 -18 14 -23 11 -5 -3 -12 3 -15 15 -4 17 -9 19 -24 11
-15 -8 -17 -7 -13 5 7 18 4 18 -17 2z"/>
<path d="M3142 2817 c-12 -7 -20 -16 -16 -20 4 -3 -5 -12 -19 -18 -15 -7 -24
-17 -20 -22 4 -6 0 -8 -11 -4 -10 4 -15 3 -11 -3 7 -12 -20 -42 -29 -33 -3 4
-6 1 -6 -5 0 -20 -48 -64 -61 -56 -7 4 -10 3 -6 -2 3 -5 -1 -18 -9 -29 -8 -10
-14 -15 -14 -10 0 4 -9 -2 -20 -15 -11 -12 -17 -27 -14 -32 3 -4 1 -7 -4 -6
-5 2 -18 -6 -28 -17 -11 -12 -15 -14 -9 -5 6 9 2 8 -13 -4 -17 -15 -19 -22
-10 -28 10 -6 8 -8 -4 -8 -10 0 -18 -5 -18 -11 0 -5 -4 -7 -10 -4 -5 3 -10 1
-10 -4 0 -6 6 -11 13 -11 8 0 7 -4 -3 -10 -9 -6 -11 -10 -3 -10 7 0 10 -6 7
-13 -3 -8 2 -14 13 -15 27 -1 74 19 67 29 -5 8 9 13 28 10 4 0 4 7 1 16 -4 10
-2 14 4 10 5 -4 15 5 22 19 6 14 16 22 21 19 6 -3 10 0 10 7 0 7 9 19 20 26
12 7 18 17 15 23 -4 5 -3 8 2 7 16 -5 55 30 48 43 -5 7 -4 10 3 5 6 -3 16 3
22 14 6 11 15 18 21 15 5 -4 9 0 9 8 0 8 7 18 16 21 8 3 12 10 9 16 -3 6 1 7
9 4 10 -4 16 -1 16 9 0 8 11 22 24 32 26 20 29 51 6 65 -20 13 -30 12 -58 -3z"/>
<path d="M750 2726 c0 -2 7 -7 16 -10 8 -3 12 -2 9 4 -6 10 -25 14 -25 6z"/>
<path d="M1860 2520 c0 -7 -9 -9 -62 -12 -21 -2 -38 -7 -38 -12 0 -4 -8 -2
-17 5 -11 10 -14 10 -9 2 4 -7 4 -13 -1 -14 -16 -2 -49 -8 -78 -14 -16 -4 -39
-8 -50 -9 -11 -1 -19 -6 -18 -12 1 -6 -10 -10 -25 -10 -15 1 -26 -4 -25 -11 1
-6 -5 -10 -15 -9 -9 2 -31 -5 -49 -15 -17 -10 -34 -15 -37 -12 -3 4 -6 1 -6
-6 0 -7 -4 -9 -10 -6 -5 3 -10 1 -10 -4 0 -6 -9 -11 -20 -11 -11 0 -20 -5 -20
-12 0 -6 -3 -8 -7 -5 -3 4 -12 -1 -20 -11 -10 -11 -12 -12 -8 -2 4 8 -1 6 -10
-5 -9 -11 -19 -19 -23 -19 -4 1 -6 -2 -5 -7 2 -4 -3 -6 -11 -3 -7 3 -16 -2
-20 -11 -3 -9 -10 -13 -16 -10 -5 3 -10 -1 -10 -10 0 -9 -4 -13 -10 -10 -5 3
-20 -4 -33 -17 -13 -13 -47 -43 -75 -67 -28 -25 -48 -49 -45 -54 3 -6 1 -7 -5
-3 -7 4 -12 2 -12 -4 0 -6 -4 -9 -9 -5 -5 3 -12 -4 -16 -15 -4 -11 -11 -18
-16 -15 -5 4 -9 -1 -9 -9 0 -9 -4 -16 -10 -16 -5 0 -10 -7 -10 -16 0 -10 -5
-14 -16 -10 -8 3 -12 2 -9 -4 3 -6 2 -10 -4 -10 -6 0 -7 -7 -4 -17 4 -10 2
-14 -4 -10 -10 6 -38 -40 -35 -55 1 -5 -1 -7 -6 -5 -4 1 -7 0 -7 -3 -1 -3 -10
-15 -20 -28 -11 -12 -18 -24 -15 -25 3 -1 -2 -10 -10 -19 -8 -9 -18 -14 -22
-11 -5 2 -8 -1 -8 -6 0 -6 5 -11 11 -11 5 0 7 -5 4 -10 -4 -6 -11 -8 -16 -5
-5 4 -9 -3 -9 -15 0 -12 -4 -18 -10 -15 -5 3 -7 0 -4 -8 3 -8 -2 -17 -12 -21
-12 -5 -14 -9 -5 -20 9 -10 8 -15 -4 -20 -8 -3 -15 -15 -15 -26 0 -11 -4 -20
-9 -20 -5 0 -7 -10 -3 -22 4 -16 2 -19 -8 -13 -10 6 -12 4 -7 -8 3 -9 -1 -23
-9 -32 -12 -11 -12 -15 -2 -15 10 0 10 -2 -1 -9 -7 -5 -10 -14 -7 -20 4 -6 3
-11 -2 -11 -6 0 -13 -7 -16 -16 -3 -8 -2 -12 4 -9 6 3 10 1 10 -4 0 -6 -5 -11
-11 -11 -5 0 -9 -10 -7 -22 2 -13 -2 -22 -7 -21 -6 1 -10 -11 -9 -25 0 -15 -4
-30 -10 -34 -7 -5 -6 -8 3 -8 10 0 11 -3 2 -13 -6 -8 -9 -23 -6 -35 2 -12 0
-22 -5 -22 -5 0 -5 -13 0 -31 8 -26 7 -29 -5 -19 -12 10 -13 7 -5 -22 12 -40
12 -41 1 -33 -6 3 -6 -6 -1 -25 5 -16 5 -30 0 -30 -4 0 -4 -15 0 -34 5 -22 3
-39 -3 -45 -8 -8 -7 -11 2 -11 8 0 11 -6 7 -16 -4 -9 -1 -24 6 -32 10 -12 10
-14 1 -8 -8 4 -13 1 -13 -9 0 -10 5 -13 13 -9 8 5 8 2 -2 -9 -11 -14 -11 -17
0 -17 11 0 11 -2 -1 -10 -8 -5 -10 -10 -3 -10 6 0 10 -8 8 -17 -1 -10 2 -24 8
-30 6 -9 5 -13 -4 -13 -11 0 -11 -2 1 -10 9 -6 14 -21 12 -40 -2 -20 1 -30 10
-30 10 0 9 -3 -2 -10 -13 -9 -13 -10 0 -11 8 0 23 -2 32 -4 10 -2 20 1 24 6 3
5 10 6 16 3 11 -7 995 -13 1016 -6 6 2 12 12 12 22 0 10 -6 21 -12 23 -10 4
-10 6 0 6 7 1 10 5 7 11 -3 5 -1 19 6 31 8 15 8 19 0 15 -14 -9 -14 7 0 21 7
7 5 15 -6 27 -9 9 -11 16 -5 16 6 0 8 5 5 10 -3 6 0 10 7 10 9 0 9 3 -2 10 -8
5 -10 10 -5 10 6 0 3 5 -5 10 -8 5 -10 10 -4 10 6 0 10 17 9 38 -1 20 3 43 9
51 8 11 8 13 -1 7 -7 -4 -13 -3 -13 1 0 5 6 15 13 22 8 10 8 12 0 7 -8 -4 -11
3 -11 23 1 17 4 28 8 26 4 -2 7 2 7 10 0 8 -4 12 -8 9 -4 -2 -6 10 -4 28 2 18
4 41 4 51 1 10 5 16 10 13 5 -4 11 0 13 6 4 10 48 13 179 13 162 0 175 -1 189
-20 8 -11 13 -28 12 -39 -3 -13 0 -16 10 -10 10 6 11 5 2 -7 -6 -8 -10 -29 -8
-46 1 -18 -2 -30 -7 -28 -4 3 -6 -4 -4 -16 3 -13 10 -26 17 -31 8 -4 9 -8 2
-8 -6 0 -10 -12 -9 -27 1 -16 -3 -34 -9 -42 -8 -11 -8 -13 0 -8 7 4 15 0 18
-9 4 -10 2 -13 -6 -8 -8 5 -9 2 -5 -9 3 -9 2 -19 -4 -22 -5 -4 -6 -12 -2 -18
12 -19 12 -37 1 -37 -5 0 -2 -7 6 -16 18 -17 21 -28 6 -19 -7 4 -9 -9 -7 -37
3 -24 0 -49 -6 -55 -6 -9 -3 -15 11 -20 21 -8 1091 -9 1095 -2 25 45 27 50 17
44 -15 -9 -4 32 14 54 8 11 8 13 -1 7 -18 -10 -16 2 3 21 11 11 12 19 5 26
-12 12 -15 31 -3 24 9 -6 9 84 -1 100 -4 6 -2 15 4 19 8 5 9 3 4 -6 -5 -9 -4
-11 4 -6 9 6 9 11 0 22 -9 11 -9 14 1 14 9 0 10 3 1 14 -9 11 -8 15 4 20 14 5
14 8 1 28 -8 13 -12 35 -11 50 2 16 0 28 -5 28 -6 0 -6 10 0 24 6 17 5 26 -3
29 -9 3 -8 9 3 22 8 10 10 16 4 12 -7 -4 -15 0 -18 9 -9 22 -8 26 6 18 7 -5 8
-3 2 7 -4 8 -10 21 -12 29 -6 31 -13 66 -17 85 -2 11 -4 21 -5 23 -2 1 -3 5
-4 10 -1 4 -5 13 -9 20 -5 7 -3 12 4 12 8 0 6 7 -5 19 -9 10 -18 28 -19 40 -1
11 -4 21 -7 21 -6 0 -8 8 -12 49 -1 11 -6 17 -10 15 -4 -3 -8 2 -8 10 0 9 -5
16 -11 16 -5 0 -7 5 -4 11 4 6 -1 17 -11 25 -11 9 -12 12 -4 8 12 -7 13 -5 3
8 -7 8 -9 19 -5 23 4 5 1 5 -5 1 -12 -6 -18 5 -14 27 0 4 -4 7 -10 7 -5 0 -8
4 -5 9 3 5 -1 12 -10 15 -11 4 -14 13 -11 27 4 15 2 19 -9 15 -9 -3 -14 1 -14
14 0 12 -7 20 -17 20 -14 0 -15 2 -5 9 11 7 10 9 -3 15 -9 3 -13 11 -9 17 5 8
3 9 -5 5 -8 -5 -14 0 -18 13 -3 12 -10 21 -15 21 -5 0 -6 5 -3 10 3 6 -1 10
-9 10 -8 0 -18 9 -21 20 -4 11 -11 18 -16 15 -5 -4 -9 0 -9 7 0 6 -30 41 -67
77 -38 35 -67 68 -66 72 2 5 -3 6 -11 3 -8 -3 -20 3 -27 13 -8 11 -22 22 -32
26 -10 4 -15 11 -12 17 3 5 0 7 -8 4 -8 -3 -18 0 -23 7 -5 8 -3 10 6 4 9 -5
11 -4 6 4 -4 6 -11 9 -16 6 -5 -3 -15 1 -23 9 -8 8 -17 12 -21 9 -3 -4 -6 0
-6 7 0 7 -3 10 -6 7 -4 -4 -15 3 -25 14 -9 11 -20 20 -23 20 -19 -3 -27 0 -22
7 3 5 -8 8 -24 7 -16 -1 -28 1 -26 4 7 11 -20 28 -41 26 -12 -1 -24 4 -27 12
-3 7 -12 10 -22 6 -13 -5 -15 -3 -9 7 6 10 3 12 -13 8 -12 -3 -23 -1 -25 5 -2
6 -20 12 -41 12 -21 1 -41 7 -45 12 -3 5 -16 9 -29 8 -12 -1 -27 3 -32 10 -5
6 -32 11 -59 11 -34 -1 -53 4 -56 13 -4 11 -8 11 -20 1 -11 -9 -15 -9 -15 -1
0 8 -5 9 -19 2 -10 -6 -21 -7 -25 -4 -11 11 -130 10 -138 -2 -5 -6 -8 -5 -8 3
0 10 -5 10 -20 2 -11 -6 -20 -7 -20 -2 0 4 -9 8 -20 8 -11 0 -20 -3 -20 -6z
m1495 -1360 c3 -5 1 -10 -4 -10 -6 0 -11 5 -11 10 0 6 2 10 4 10 3 0 8 -4 11
-10z"/>
<path d="M96 1861 c-4 -6 -10 -9 -14 -7 -8 5 -26 -15 -29 -32 -2 -7 5 -12 15
-12 13 0 14 -2 3 -9 -9 -6 -10 -11 -2 -15 6 -4 15 -5 20 -1 5 3 13 0 17 -6 5
-8 3 -9 -6 -4 -8 5 -11 4 -7 -3 4 -5 16 -8 27 -5 12 3 20 0 20 -7 0 -9 4 -9
17 1 11 10 14 10 9 2 -7 -12 -4 -14 43 -17 8 -1 16 -7 19 -14 2 -6 8 -12 13
-12 6 0 7 6 3 13 -6 9 -5 9 8 0 8 -7 18 -10 21 -6 4 3 7 1 7 -7 0 -10 3 -10
16 0 12 11 15 11 12 -1 -2 -9 5 -14 20 -13 12 1 22 -3 22 -7 0 -5 10 -9 23 -9
13 0 29 -6 36 -12 11 -11 12 -10 6 1 -5 9 1 8 18 -4 15 -9 31 -14 38 -10 6 4
15 2 19 -4 4 -7 25 -14 46 -15 29 -2 43 3 53 18 11 15 12 21 3 24 -7 2 -10 8
-7 12 3 5 -10 14 -29 21 -19 7 -33 16 -31 19 2 4 -8 6 -23 5 -15 -1 -36 5 -46
14 -16 13 -18 13 -11 1 7 -12 6 -13 -6 -4 -8 6 -22 10 -32 9 -9 -2 -15 1 -11
6 3 5 -2 9 -10 9 -26 0 -30 1 -45 13 -12 10 -13 9 -6 -3 7 -12 6 -13 -7 -3 -8
7 -18 10 -21 6 -4 -3 -7 0 -7 7 0 7 -3 11 -6 7 -4 -3 -22 0 -40 8 -19 8 -34
11 -34 8 0 -3 -6 0 -13 6 -8 6 -17 8 -20 4 -4 -3 -7 -2 -7 3 0 5 -8 10 -17 10
-26 1 -47 8 -54 18 -4 4 -10 3 -13 -3z"/>
<path d="M3847 1847 c4 -7 0 -8 -12 -4 -9 4 -25 2 -33 -5 -13 -11 -15 -11 -8
2 4 8 1 7 -8 -4 -10 -13 -24 -17 -45 -14 -16 2 -28 1 -25 -4 3 -4 -1 -9 -8 -9
-45 -5 -56 -8 -85 -22 -24 -13 -33 -14 -36 -4 -3 7 -6 5 -6 -5 -1 -12 -6 -15
-18 -11 -11 4 -14 3 -9 -5 5 -9 1 -9 -18 -3 -18 7 -26 6 -30 -4 -2 -7 -16 -12
-30 -11 -14 2 -23 -1 -20 -5 5 -8 -10 -13 -28 -10 -5 0 -8 -4 -8 -10 0 -5 -4
-8 -9 -5 -5 3 -12 -2 -16 -12 -13 -30 -12 -49 4 -50 43 -5 85 -2 90 6 3 5 14
8 24 6 9 -1 17 1 17 5 0 7 15 11 53 12 9 0 15 4 12 9 -3 5 3 9 12 10 52 2 71
6 67 11 -2 4 3 10 12 13 10 4 13 2 8 -7 -5 -9 -4 -9 7 1 7 6 21 12 32 12 10 0
16 3 14 8 -3 4 8 8 25 8 17 1 34 7 39 15 7 12 9 12 9 0 0 -10 3 -11 13 -2 8 6
17 8 20 4 4 -3 7 0 7 7 0 7 3 10 7 7 3 -4 13 -1 21 6 13 9 14 9 8 0 -4 -7 -5
-13 -1 -13 13 0 22 46 11 59 -8 11 -8 13 1 7 8 -4 11 -2 8 6 -3 8 -21 14 -40
15 -22 0 -32 -3 -28 -10z"/>
<path d="M23 857 c1 -7 -3 -11 -8 -10 -6 1 -11 -12 -11 -28 -1 -19 3 -29 12
-29 8 0 14 -3 14 -7 0 -7 476 -9 490 -3 3 1 8 2 12 2 3 -1 12 6 20 15 11 14
11 16 -2 9 -8 -4 -7 -1 3 7 16 14 16 15 0 28 -15 12 -16 12 -9 -1 4 -8 -1 -4
-12 9 -13 16 -21 20 -26 12 -4 -6 -13 -8 -19 -4 -15 9 -49 9 -64 0 -6 -4 -14
-4 -17 1 -5 9 -47 9 -63 -1 -7 -4 -14 -4 -17 1 -5 9 -47 9 -63 -1 -7 -4 -14
-4 -17 1 -3 6 -61 8 -61 2 0 -1 -12 -3 -27 -5 -16 -2 -28 0 -28 4 0 9 -40 8
-56 -2 -6 -3 -14 -3 -18 0 -12 12 -35 12 -33 0z"/>
<path d="M3490 862 c-8 -3 -19 -11 -23 -19 -5 -7 -12 -11 -17 -8 -5 3 -8 -4
-7 -15 1 -11 5 -20 10 -20 4 0 6 -4 3 -8 -3 -5 0 -9 7 -10 7 0 23 -4 36 -8 19
-5 22 -4 16 6 -6 10 -4 11 6 4 21 -13 39 -14 39 -1 0 8 3 8 8 2 9 -13 82 -16
82 -4 0 5 5 9 11 9 5 0 8 -4 5 -8 -7 -12 108 -9 116 3 5 7 8 7 8 0 0 -5 23
-10 50 -10 28 -1 50 3 50 7 0 4 5 8 11 8 5 0 7 -5 4 -10 -7 -11 36 -7 55 5 5
3 10 1 10 -5 0 -7 5 -7 13 2 18 18 15 54 -7 76 -16 16 -17 16 -11 -3 6 -18 5
-19 -7 -3 -9 11 -19 14 -28 8 -8 -5 -18 -6 -22 -4 -11 7 -108 11 -108 5 0 -3
-11 -6 -25 -6 -14 0 -25 3 -25 7 0 4 -11 3 -25 -2 -17 -7 -25 -6 -25 1 0 8 -4
8 -13 0 -8 -6 -16 -8 -19 -5 -8 7 -108 11 -108 4 0 -8 -43 -7 -50 1 -3 3 -12
4 -20 1z"/>
</g>
</svg>
