<?xml version="1.0" standalone="no"?>
<!DOCTYPE svg PUBLIC "-//W3C//DTD SVG 20010904//EN"
 "http://www.w3.org/TR/2001/REC-SVG-20010904/DTD/svg10.dtd">
<svg version="1.0" xmlns="http://www.w3.org/2000/svg"
 width="400.000000pt" height="400.000000pt" viewBox="0 0 400.000000 400.000000"
 preserveAspectRatio="xMidYMid meet">
<metadata>
Created by potrace 1.11, written by Peter Selinger 2001-2013
</metadata>
<g transform="translate(0.000000,400.000000) scale(0.100000,-0.100000)"
fill="#000000" stroke="none">
<path d="M482 3885 c-7 -8 -10 -20 -6 -27 4 -7 3 -8 -4 -4 -7 4 -12 2 -12 -3
0 -22 -2 -26 -16 -42 -8 -9 -11 -19 -7 -22 3 -4 1 -7 -6 -7 -7 0 -9 -4 -6 -10
3 -5 1 -10 -6 -10 -7 0 -9 -3 -6 -6 3 -4 -2 -18 -13 -32 -11 -13 -18 -27 -16
-31 4 -5 -26 -10 -96 -14 -16 -1 -28 -6 -28 -12 0 -5 -5 -3 -10 5 -6 9 -10 10
-10 3 0 -6 -9 -10 -20 -8 -11 2 -22 -1 -26 -6 -3 -5 -15 -7 -26 -3 -13 4 -18
2 -14 -4 3 -5 -5 -13 -19 -16 -14 -4 -25 -12 -26 -19 0 -6 -2 -23 -4 -37 -3
-30 11 -60 37 -78 10 -7 16 -18 13 -23 -4 -5 3 -9 14 -9 11 0 22 -9 26 -20 3
-11 13 -20 21 -20 8 0 13 -4 12 -9 -2 -5 9 -20 24 -34 15 -14 25 -27 23 -29
-3 -2 -5 -18 -7 -36 -1 -18 -6 -32 -11 -32 -5 0 -3 -8 4 -17 10 -11 10 -14 2
-9 -9 5 -13 -3 -14 -28 -2 -48 -3 -53 -11 -62 -4 -4 -2 -14 5 -22 10 -13 9
-14 -2 -8 -9 6 -8 1 3 -16 9 -14 13 -28 9 -33 -5 -4 -2 -5 5 -1 6 4 12 3 12
-3 0 -6 11 -13 25 -17 14 -3 22 -10 19 -15 -3 -5 2 -6 10 -3 9 3 14 10 11 14
-3 5 4 6 15 3 12 -3 29 2 40 12 10 9 24 14 29 10 6 -3 14 1 17 9 3 9 10 13 15
10 5 -3 9 -1 9 4 0 6 11 13 25 16 14 4 25 11 25 17 0 6 5 7 10 4 6 -3 10 -2
10 4 0 12 64 -5 68 -18 2 -6 10 -7 18 -4 8 3 14 1 14 -5 0 -11 60 -38 74 -34
5 2 6 -4 3 -12 -4 -10 -1 -13 9 -9 7 3 14 1 14 -4 0 -13 32 -13 48 0 9 7 11 5
6 -9 -5 -16 -2 -15 15 5 12 13 21 20 21 16 0 -14 29 23 32 41 2 10 8 23 13 27
6 6 6 10 -2 14 -8 3 -13 23 -13 48 0 24 -4 47 -10 50 -5 3 -10 24 -10 45 0 21
-5 40 -11 42 -5 2 -7 11 -4 21 4 9 10 15 14 13 3 -2 12 2 19 10 7 8 10 14 7
14 -3 0 11 15 32 33 53 45 74 67 67 67 -4 0 4 10 17 23 26 24 33 67 12 80 -7
4 -13 13 -13 20 0 7 -16 17 -35 23 -19 6 -32 7 -30 3 3 -4 -4 -5 -15 -2 -11 3
-20 10 -20 17 0 6 -5 4 -10 -4 -5 -8 -10 -10 -10 -4 0 6 -16 10 -35 9 -19 -1
-35 3 -35 8 0 6 -3 7 -6 4 -4 -3 -16 -2 -27 4 -14 8 -18 8 -13 0 4 -6 2 -9 -6
-6 -12 5 -45 66 -40 73 2 1 -4 10 -13 18 -8 9 -13 20 -10 25 4 5 2 9 -3 9 -5
0 -15 13 -22 30 -7 16 -16 28 -20 25 -4 -3 -7 3 -6 13 1 14 -9 17 -59 19 -43
2 -64 -1 -73 -12z m88 -288 c1 -26 20 -54 40 -59 8 -2 21 -9 29 -16 10 -10 16
-11 21 -2 5 8 10 9 14 2 4 -6 15 -9 26 -7 27 5 26 2 -16 -42 -27 -29 -35 -44
-32 -65 3 -16 0 -28 -6 -29 -6 0 -5 -3 2 -6 6 -2 10 -9 6 -14 -3 -5 0 -9 6 -9
7 0 8 -6 1 -19 -6 -10 -7 -22 -3 -27 4 -5 -2 -1 -14 9 -11 9 -24 14 -27 10 -4
-3 -7 -2 -7 4 0 6 -7 14 -16 17 -10 4 -13 2 -8 -7 5 -7 1 -6 -10 2 -23 19 -54
21 -67 4 -6 -7 -15 -10 -20 -7 -5 3 -9 1 -9 -5 0 -5 -10 -8 -21 -6 -25 5 -38
15 -20 15 7 0 11 17 10 50 -1 27 -6 47 -11 44 -4 -3 -8 2 -8 10 0 9 -5 16 -11
16 -5 0 -7 5 -4 10 3 6 -1 10 -9 10 -9 0 -16 2 -16 4 0 2 -2 11 -5 19 -4 10 1
13 17 12 13 -1 29 2 36 8 8 6 12 6 12 -2 0 -7 5 -9 10 -6 6 4 7 11 4 17 -4 7
-2 8 4 4 16 -10 56 29 47 45 -5 8 -4 10 3 5 7 -4 12 -1 12 6 0 18 21 39 32 32
4 -3 8 -15 8 -27z"/>
<path d="M1866 3459 c2 -3 -18 -5 -44 -4 -26 1 -52 -2 -59 -7 -7 -5 -14 -5
-18 2 -4 7 -11 5 -20 -4 -8 -8 -26 -13 -40 -12 -14 2 -25 0 -25 -3 0 -4 -8 -8
-17 -9 -39 -4 -59 -8 -73 -17 -8 -5 -23 -8 -32 -7 -10 2 -18 -1 -18 -7 0 -6
-6 -8 -14 -5 -8 3 -17 0 -21 -5 -3 -6 -11 -9 -16 -6 -5 4 -9 1 -9 -5 0 -6 -4
-9 -9 -5 -5 3 -13 1 -16 -5 -4 -6 -15 -8 -26 -5 -13 5 -19 2 -17 -7 2 -8 -4
-12 -14 -10 -10 2 -18 -2 -18 -8 0 -5 -3 -9 -7 -8 -5 1 -18 -3 -29 -10 -12 -6
-24 -8 -28 -5 -3 3 -6 1 -6 -6 0 -11 -42 -31 -62 -31 -5 0 -17 -9 -28 -20 -12
-12 -25 -18 -31 -15 -5 4 -8 2 -7 -3 2 -6 -1 -11 -7 -13 -5 -2 -25 -19 -44
-38 -19 -20 -31 -29 -26 -22 5 8 -6 5 -23 -8 -18 -12 -32 -27 -32 -32 0 -6 -4
-7 -10 -4 -5 3 -10 -1 -10 -10 0 -9 -9 -19 -20 -22 -11 -3 -17 -9 -14 -14 3
-5 0 -9 -6 -9 -14 0 -100 -87 -93 -94 4 -3 0 -6 -8 -6 -8 0 -19 -10 -24 -22
-6 -13 -16 -22 -23 -21 -7 2 -11 0 -11 -5 4 -24 -2 -42 -13 -36 -8 5 -9 2 -5
-10 4 -9 3 -15 -1 -12 -12 7 -44 -33 -37 -44 4 -6 1 -10 -4 -10 -6 0 -11 -7
-11 -15 0 -8 -4 -15 -8 -15 -5 0 -21 -25 -37 -54 -16 -30 -32 -53 -37 -50 -4
3 -8 0 -8 -7 0 -6 -8 -9 -20 -6 -11 3 -20 1 -20 -5 0 -5 -4 -6 -10 -3 -5 3
-10 1 -10 -6 0 -8 -4 -8 -15 1 -9 8 -15 9 -15 2 0 -6 -8 -9 -18 -7 -9 1 -34
-3 -53 -9 -20 -7 -45 -12 -57 -11 -12 1 -22 -2 -22 -7 0 -4 -3 -7 -7 -7 -5 1
-11 0 -15 -1 -5 -1 -11 -3 -15 -4 -35 -8 -92 -31 -107 -45 -11 -9 -16 -10 -12
-3 4 6 2 12 -3 12 -6 0 -11 -4 -11 -10 0 -5 -11 -12 -25 -16 -14 -3 -22 -10
-19 -15 3 -5 -2 -6 -10 -3 -9 3 -16 1 -16 -5 0 -6 -6 -11 -13 -11 -7 0 -19 -9
-27 -20 -11 -15 -17 -17 -27 -8 -8 6 -13 7 -12 2 4 -16 -13 -44 -22 -38 -5 3
-9 1 -9 -5 0 -5 -12 -24 -28 -42 -26 -31 -27 -38 -27 -141 0 -67 4 -112 11
-116 6 -4 17 -21 24 -39 8 -17 18 -29 22 -27 4 3 8 -1 8 -9 0 -8 7 -18 16 -21
8 -3 13 -9 10 -14 -2 -4 11 -18 30 -31 19 -13 34 -27 34 -32 0 -5 6 -9 13 -9
7 0 19 -9 27 -20 8 -11 19 -20 26 -20 6 0 19 -9 29 -20 10 -11 22 -17 26 -14
5 3 9 -2 9 -10 0 -9 8 -16 17 -16 9 0 24 -7 34 -16 9 -8 25 -17 34 -18 9 -1
21 -9 26 -17 5 -8 9 -10 9 -6 0 5 13 -1 29 -12 22 -16 31 -18 34 -9 3 8 6 5 6
-6 1 -11 6 -16 15 -13 8 3 17 -1 20 -9 3 -8 13 -14 23 -14 15 0 16 -2 3 -10
-10 -6 -11 -10 -2 -10 6 0 12 -11 12 -25 0 -14 6 -25 13 -25 8 0 7 -4 -3 -10
-10 -6 -11 -10 -2 -10 6 0 11 -3 11 -7 -4 -26 2 -43 14 -37 9 5 9 4 0 -6 -10
-11 -9 -16 5 -26 13 -10 14 -13 3 -14 -11 0 -9 -5 5 -22 12 -13 13 -18 4 -13
-12 7 -12 5 1 -11 9 -10 14 -25 11 -33 -3 -8 0 -11 7 -7 7 5 11 -2 11 -18 0
-14 5 -26 10 -26 6 0 10 -9 10 -20 0 -12 9 -31 20 -43 11 -12 18 -27 16 -34
-3 -7 1 -13 9 -13 13 0 20 -25 16 -53 0 -4 2 -6 6 -5 5 2 9 -1 10 -5 1 -5 11
-17 22 -26 11 -10 18 -21 14 -25 -3 -3 1 -6 10 -6 10 0 17 -8 17 -19 0 -10 7
-21 15 -25 8 -3 14 -11 13 -18 -2 -7 2 -12 9 -13 6 0 15 -4 20 -9 5 -5 3 -6
-4 -2 -7 4 -13 2 -13 -3 0 -6 7 -11 15 -11 8 0 15 -7 15 -15 0 -9 7 -18 15
-21 8 -4 12 -10 9 -15 -3 -5 0 -9 6 -9 15 0 100 -87 92 -95 -4 -4 -2 -6 3 -5
20 4 36 0 31 -8 -3 -5 6 -15 19 -22 14 -7 25 -17 25 -22 0 -4 7 -8 15 -8 8 0
15 -4 15 -9 0 -5 9 -13 20 -16 11 -3 20 -13 20 -20 0 -9 6 -12 15 -9 8 4 15 1
15 -6 0 -6 5 -8 10 -5 6 3 10 1 10 -4 0 -6 7 -11 15 -11 8 0 15 -4 15 -8 0
-10 50 -37 63 -34 4 1 7 -3 7 -9 0 -5 5 -7 10 -4 6 3 13 -1 16 -9 3 -9 10 -13
15 -10 5 3 12 -1 15 -9 3 -8 16 -13 30 -11 15 1 28 -4 31 -12 3 -8 9 -12 13
-9 5 3 11 1 15 -5 4 -6 11 -8 16 -5 5 4 9 1 9 -5 0 -6 4 -9 9 -5 5 3 15 -1 23
-8 7 -7 25 -12 41 -10 18 1 25 -2 21 -9 -5 -7 -1 -9 9 -5 10 3 17 3 17 -2 0
-5 11 -9 25 -10 56 -4 65 -6 65 -12 0 -3 16 -5 35 -4 26 1 35 -3 36 -14 0 -9
3 -11 5 -4 3 7 14 9 32 4 15 -5 50 -9 77 -10 57 -1 89 -6 108 -17 7 -5 6 0 -3
11 -14 17 -14 18 7 7 28 -15 36 -15 27 0 -5 9 -2 9 9 -1 9 -7 17 -10 17 -5 0
5 21 8 47 8 27 -1 55 2 64 7 9 5 21 3 27 -3 9 -9 12 -8 12 3 0 12 2 12 10 -1
7 -11 10 -11 10 -2 0 7 5 10 10 7 6 -3 10 -1 10 6 0 9 3 9 14 0 10 -9 16 -9
21 -1 4 6 13 9 21 6 8 -3 14 -1 14 4 0 5 8 9 18 9 80 4 90 6 82 17 -7 7 -1 10
20 9 17 -1 30 2 30 7 0 5 5 6 10 3 6 -3 10 -1 10 5 0 6 5 8 10 5 6 -3 10 0 10
7 0 9 3 9 10 -2 7 -11 10 -11 10 -2 0 7 5 10 10 7 6 -3 10 -2 10 4 0 6 7 8 15
5 8 -4 15 -1 15 5 0 6 9 11 20 11 11 0 20 5 20 11 0 5 5 7 10 4 6 -3 10 -1 10
5 0 7 7 9 16 6 11 -4 15 -2 11 7 -4 10 2 13 19 11 13 -1 22 2 19 6 -5 8 33 26
48 22 4 -1 7 1 7 6 0 4 16 16 35 26 19 10 32 23 28 29 -3 6 -1 7 5 3 6 -4 20
2 31 13 11 11 22 17 25 14 3 -4 6 0 6 7 0 7 3 11 6 7 3 -3 22 10 42 29 20 19
40 34 45 34 4 0 7 3 5 8 -2 4 10 21 26 37 16 17 26 23 21 15 -4 -8 4 -4 18 9
30 28 36 40 10 21 -10 -8 -4 0 12 17 17 17 38 42 49 57 10 14 23 23 29 19 6
-4 8 0 5 9 -4 8 2 20 13 26 10 7 19 18 19 26 0 8 7 17 16 20 8 3 12 10 9 16
-3 5 -3 10 2 10 9 1 57 75 54 85 -5 14 41 43 64 40 14 -1 25 1 25 5 0 4 18 6
39 6 22 -1 37 3 34 8 -4 5 1 7 10 3 10 -3 17 -3 17 1 0 4 12 8 28 9 28 1 85
10 90 14 1 1 7 3 12 4 6 1 11 3 13 5 2 2 19 6 62 14 16 3 31 10 33 15 2 6 10
7 18 4 8 -3 14 -1 14 4 0 5 12 10 28 11 15 1 33 10 40 19 6 9 12 14 12 10 0
-4 11 0 25 9 13 8 29 13 35 9 5 -3 10 0 10 8 0 8 15 22 33 31 17 8 28 16 24
16 -4 0 8 16 28 36 19 19 33 39 30 45 -4 5 -2 9 4 9 5 0 16 14 25 30 9 19 10
28 3 23 -7 -4 -6 0 2 10 7 9 11 23 8 31 -3 8 -1 17 6 20 8 3 8 5 -2 5 -11 1
-11 4 -1 16 8 10 9 15 2 15 -6 0 -9 7 -6 15 4 8 2 15 -4 15 -6 0 -9 11 -7 25
1 14 -1 25 -5 25 -4 0 -15 12 -25 26 -11 18 -12 24 -4 18 12 -6 12 -5 0 9 -7
9 -17 14 -22 11 -5 -3 -9 4 -9 14 0 11 -7 23 -16 26 -9 3 -12 11 -8 18 4 7 4
10 0 6 -9 -8 -72 50 -68 63 1 5 -1 8 -5 8 -21 -3 -33 2 -27 13 4 6 3 8 -4 4
-6 -3 -13 -2 -17 4 -4 6 -11 8 -16 5 -5 -4 -9 -2 -9 2 0 5 -7 18 -16 29 -8 10
-12 12 -8 4 7 -12 5 -13 -8 -3 -8 7 -19 9 -23 5 -5 -4 -5 -1 -1 6 4 7 1 12 -8
12 -9 0 -16 4 -16 9 0 5 -7 12 -16 15 -10 4 -13 2 -8 -6 4 -6 -5 -3 -19 8 -15
10 -27 24 -27 29 0 6 -5 3 -10 -5 -8 -13 -10 -13 -10 2 0 12 -6 16 -20 13 -11
-2 -18 0 -15 6 6 8 -8 13 -27 10 -5 0 -8 7 -8 16 0 15 -2 16 -10 3 -8 -13 -10
-12 -15 1 -3 9 -12 16 -20 17 -8 1 -22 3 -30 4 -8 1 -15 8 -15 15 0 8 -4 12
-9 8 -12 -7 -24 13 -29 45 -2 13 -9 31 -15 39 -9 11 -9 13 0 8 9 -5 9 1 0 25
-7 18 -14 35 -17 38 -3 3 -7 16 -9 30 -1 14 -7 33 -12 43 -6 9 -7 22 -4 27 4
6 -1 13 -9 16 -9 3 -13 10 -10 15 3 5 1 9 -5 9 -6 0 -8 7 -5 15 4 8 1 15 -6
15 -7 0 -10 7 -6 15 3 9 0 15 -9 15 -9 0 -15 10 -15 25 0 14 -4 25 -8 25 -4 0
-14 16 -21 35 -7 19 -17 35 -22 35 -5 0 -9 7 -9 15 0 7 -6 18 -14 22 -8 4 -16
13 -18 18 -2 6 -7 9 -11 7 -5 -1 -6 2 -2 8 4 6 -8 25 -27 42 -18 17 -24 25
-14 17 16 -12 16 -8 -4 19 -13 17 -28 32 -32 32 -5 0 -6 5 -3 10 3 6 1 10 -5
10 -14 0 -70 58 -70 72 0 5 -4 6 -10 3 -5 -3 -10 1 -10 9 0 9 -7 16 -16 16
-11 0 -14 5 -10 16 4 11 2 15 -8 11 -8 -3 -17 1 -20 9 -3 9 -11 12 -17 8 -8
-4 -9 -3 -5 4 6 11 -31 38 -46 34 -5 -1 -7 1 -5 6 1 4 -1 8 -6 9 -4 2 -18 14
-31 28 -13 13 -26 22 -29 18 -4 -3 -7 -1 -7 5 0 7 -7 12 -15 12 -8 0 -15 5
-15 10 0 6 -7 10 -15 10 -8 0 -15 5 -15 12 0 6 -3 8 -7 5 -3 -4 -12 1 -20 11
-9 10 -12 11 -7 2 6 -12 4 -12 -12 1 -19 16 -50 31 -69 34 -5 0 -9 6 -8 13 2
6 -4 9 -12 6 -8 -4 -15 -1 -15 5 0 6 -6 8 -14 5 -8 -3 -17 0 -21 5 -3 6 -11 9
-16 6 -5 -4 -9 -1 -9 4 0 6 -11 11 -25 11 -14 0 -25 5 -25 11 0 6 -7 9 -15 6
-8 -4 -17 -1 -21 4 -3 6 -15 9 -25 6 -10 -3 -22 0 -26 5 -4 7 -1 8 8 3 8 -5
11 -4 6 1 -5 5 -18 9 -30 10 -12 1 -29 4 -37 7 -8 4 -33 8 -55 9 -22 2 -42 6
-45 10 -3 4 -30 10 -60 12 -30 3 -65 7 -77 10 -13 3 -23 0 -23 -5 0 -6 -6 -7
-12 -2 -15 9 -178 11 -172 2z m120 -151 c5 -7 3 -8 -6 -3 -9 5 -11 4 -6 -3 5
-8 13 -9 25 -2 10 5 21 7 24 4 3 -3 41 -7 84 -9 43 -3 79 -9 81 -15 3 -7 10
-7 23 0 14 8 19 7 19 -1 0 -6 9 -9 20 -6 11 3 23 1 26 -5 3 -5 12 -7 19 -4 8
3 15 0 17 -5 2 -5 13 -11 26 -12 12 0 22 -5 22 -9 0 -4 3 -7 8 -7 4 1 10 0 15
-1 4 -1 10 -3 15 -5 51 -14 62 -19 62 -27 0 -6 7 -8 15 -4 8 3 21 -1 29 -9 8
-8 22 -15 30 -15 9 0 16 -5 16 -11 0 -5 4 -8 9 -5 5 3 11 -1 14 -9 4 -8 15
-12 26 -10 11 2 24 -1 27 -7 5 -7 2 -8 -7 -3 -10 6 -11 5 -3 -4 6 -7 20 -13
32 -14 12 0 19 -3 17 -5 -6 -7 19 -30 28 -25 4 2 10 -3 13 -11 3 -9 10 -16 15
-16 10 0 23 -10 97 -80 29 -28 57 -50 62 -50 6 0 10 -5 10 -11 0 -6 14 -24 30
-39 17 -15 30 -32 30 -37 0 -5 9 -16 20 -26 12 -10 18 -22 15 -27 -3 -6 1 -10
9 -10 9 0 16 -7 16 -15 0 -8 5 -15 10 -15 6 0 10 -7 10 -15 0 -8 5 -15 10 -15
6 0 10 -9 10 -20 0 -11 5 -20 10 -20 10 0 35 -48 32 -62 -1 -5 3 -8 9 -8 5 0
8 -4 5 -9 -3 -5 1 -14 9 -21 8 -7 13 -16 10 -20 -3 -5 -1 -11 5 -15 6 -4 8
-11 5 -16 -4 -5 -1 -9 4 -9 6 0 11 -9 11 -20 0 -11 5 -20 11 -20 5 0 7 -4 4
-10 -3 -5 -2 -10 3 -10 5 0 8 -14 6 -31 -2 -18 0 -28 6 -24 6 3 10 -2 10 -12
0 -11 6 -25 13 -32 10 -11 10 -13 0 -7 -7 4 -13 2 -13 -3 0 -6 5 -11 11 -11 5
0 9 -8 8 -17 -4 -43 1 -64 14 -57 8 5 8 2 -2 -9 -11 -14 -11 -17 0 -17 11 0
11 -2 -1 -10 -10 -6 -11 -10 -2 -10 6 0 12 -7 12 -15 0 -8 -6 -15 -12 -15 -10
0 -10 -2 0 -9 10 -6 13 -40 12 -132 -1 -153 -4 -206 -12 -215 -4 -3 -4 -12 -1
-20 3 -8 1 -14 -5 -14 -6 0 -8 -9 -5 -20 3 -11 1 -26 -4 -33 -6 -6 -9 -22 -8
-34 1 -13 -3 -23 -8 -23 -6 0 -7 -3 -4 -7 4 -3 1 -13 -6 -21 -9 -13 -9 -14 0
-8 9 5 11 2 7 -8 -3 -9 -11 -13 -17 -9 -6 3 -7 1 -3 -6 4 -6 4 -17 -1 -24 -5
-7 -10 -23 -11 -37 -1 -14 -10 -32 -21 -41 -11 -9 -17 -20 -13 -23 3 -4 -1 -4
-11 0 -9 3 -14 11 -10 18 4 6 -1 5 -10 -3 -9 -7 -17 -10 -17 -5 0 5 -5 2 -10
-6 -9 -13 -10 -13 -10 0 0 13 -1 13 -10 0 -8 -12 -10 -12 -10 5 0 15 -2 17 -9
7 -10 -16 -71 -23 -71 -8 0 7 -3 8 -8 1 -8 -11 -388 -13 -399 -2 -3 4 -12 2
-20 -4 -7 -6 -13 -7 -13 -2 0 4 -26 8 -57 8 -32 -1 -64 3 -70 8 -9 6 -13 5
-13 -2 0 -7 -5 -9 -11 -5 -6 3 -33 8 -61 9 -27 2 -52 6 -55 9 -3 3 -12 1 -20
-5 -8 -8 -13 -8 -13 -1 0 11 -25 10 -36 -1 -4 -4 -14 -1 -22 6 -9 7 -46 12
-88 13 -40 0 -79 5 -86 10 -7 6 -34 10 -60 9 -27 0 -48 4 -48 8 0 5 -9 6 -19
2 -11 -3 -23 -1 -26 6 -6 8 -10 7 -16 -2 -6 -9 -9 -10 -9 -2 0 6 -8 10 -17 8
-10 -1 -24 3 -32 9 -11 8 -13 8 -7 -1 4 -7 3 -13 -3 -13 -5 0 -13 5 -16 10 -4
6 -11 8 -16 4 -6 -3 -8 5 -5 20 3 14 0 26 -5 26 -5 0 -9 9 -9 21 0 13 4 18 13
14 6 -4 5 -1 -4 7 -9 7 -14 19 -12 26 3 6 0 12 -6 12 -6 0 -11 8 -11 19 0 10
-9 30 -20 44 -11 14 -20 28 -20 32 0 4 -12 19 -27 34 -16 15 -35 37 -43 49
-10 15 -16 18 -22 9 -5 -8 -8 -6 -8 7 0 11 -3 17 -6 13 -4 -3 -13 1 -21 9 -9
8 -22 13 -30 10 -8 -3 -11 -1 -8 4 3 6 -3 10 -14 10 -12 0 -21 4 -21 8 0 10
-2 10 -95 16 -38 2 -74 5 -80 6 -5 1 -12 1 -15 0 -3 -1 -18 -4 -35 -6 -16 -3
-32 -9 -35 -13 -3 -5 -13 -7 -22 -6 -9 2 -19 -3 -22 -11 -3 -7 -12 -11 -21 -8
-8 4 -17 0 -21 -9 -3 -9 -12 -13 -21 -10 -11 4 -14 2 -9 -5 4 -7 1 -12 -7 -12
-8 0 -18 -7 -21 -16 -3 -8 -10 -12 -16 -9 -5 3 -10 1 -10 -5 0 -6 -5 -8 -12
-4 -7 5 -8 3 -3 -6 5 -8 2 -17 -7 -24 -8 -6 -20 -21 -27 -33 -8 -15 -20 -22
-36 -21 -14 1 -25 6 -25 10 0 4 -9 5 -20 3 -11 -2 -18 0 -15 6 4 5 -4 9 -17 9
-13 0 -34 8 -47 17 -18 12 -22 13 -16 2 7 -11 6 -12 -7 -2 -8 7 -18 10 -21 6
-4 -3 -7 -1 -7 5 0 7 -6 12 -14 12 -22 0 -49 42 -33 52 9 6 9 8 0 8 -7 0 -10
7 -6 17 5 12 3 14 -8 8 -11 -6 -12 -5 -1 6 6 7 12 17 12 22 0 4 -6 5 -12 1 -9
-5 -9 -2 1 9 11 14 11 17 0 17 -11 0 -11 2 1 10 8 5 10 10 4 10 -6 0 -11 7
-11 15 0 8 4 12 9 9 4 -3 8 -1 8 5 0 5 -5 13 -10 16 -7 4 -7 12 0 25 13 25 13
33 -2 24 -7 -4 -4 3 7 16 11 13 15 20 9 17 -7 -4 -15 0 -18 9 -3 8 -2 12 4 9
6 -4 11 10 12 32 2 56 3 61 11 69 4 4 7 19 7 34 0 14 6 32 13 39 9 10 9 12 0
7 -9 -5 -8 1 2 20 7 15 11 33 8 42 -4 10 -2 13 5 8 8 -5 10 -2 6 8 -4 10 -1
16 7 16 7 0 9 3 6 7 -4 3 -1 13 6 21 10 13 9 14 -1 8 -10 -6 -11 -4 -4 10 5
11 15 33 22 49 7 17 16 37 21 45 5 8 14 27 20 42 6 16 15 25 20 22 5 -3 9 2 9
11 0 9 9 30 21 46 11 16 17 34 13 40 -4 7 -3 9 3 6 10 -6 43 26 43 43 0 6 7
13 15 16 8 4 13 10 10 14 -3 5 0 12 7 17 7 4 18 17 24 28 6 11 22 26 35 32 13
7 20 13 15 13 -5 0 17 25 49 55 33 30 63 55 68 55 4 0 5 5 2 10 -3 6 1 10 10
10 9 0 30 13 48 30 17 16 44 35 59 41 16 6 28 16 28 21 0 5 5 6 10 3 6 -3 10
-1 10 5 0 7 7 10 15 6 8 -3 15 -1 15 4 0 6 7 10 15 10 8 0 15 4 15 9 0 5 11
12 25 15 14 4 25 10 25 15 0 5 11 8 24 7 14 -2 27 3 30 10 3 8 17 14 31 14 15
0 24 4 21 9 -4 5 2 8 11 7 10 -2 21 1 24 6 3 5 22 10 42 11 21 1 37 6 37 10 0
5 5 5 10 2 6 -3 10 -3 10 2 0 4 12 8 28 9 36 1 55 7 64 19 5 6 8 5 8 -3 0 -8
5 -10 13 -5 6 4 35 9 62 9 28 1 52 3 55 4 14 6 37 4 49 -5 11 -7 13 -7 8 2 -4
6 -1 14 5 16 7 3 14 6 15 6 1 1 5 -4 9 -11z m-1403 -840 c-4 -7 -9 -21 -10
-30 -5 -34 -8 -43 -15 -48 -3 -3 -9 -21 -11 -40 -3 -19 -6 -35 -7 -35 -3 0
-11 -46 -11 -68 0 -9 -5 -15 -10 -11 -12 7 -7 -19 6 -28 6 -5 6 -8 -2 -8 -7 0
-10 -17 -10 -45 1 -25 -1 -45 -4 -45 -3 0 -4 -38 -2 -85 3 -56 0 -85 -6 -85
-6 0 -11 5 -11 11 0 6 -6 9 -12 6 -7 -2 -19 3 -26 12 -11 13 -12 13 -7 1 4 -8
-1 -6 -9 4 -9 11 -16 16 -16 11 0 -5 -7 0 -16 11 -8 10 -12 12 -8 4 5 -10 -1
-8 -18 5 -14 11 -36 27 -48 35 -13 8 -32 23 -42 33 -10 9 -23 17 -28 17 -6 0
-10 6 -10 14 0 8 -9 18 -20 21 -11 3 -20 12 -20 20 0 7 -7 16 -16 19 -8 3 -12
10 -9 16 3 5 2 10 -3 10 -9 0 -24 34 -24 55 0 25 16 55 29 55 8 0 11 5 8 10
-3 6 -1 10 5 10 6 0 8 5 5 10 -3 6 3 10 15 10 11 0 23 7 26 15 4 8 15 15 25
15 10 0 19 5 19 11 0 5 5 7 10 4 5 -3 10 -1 10 5 0 6 5 8 10 5 6 -3 10 -2 10
3 0 5 6 9 13 9 21 1 42 8 48 16 3 4 16 9 27 10 12 1 22 5 22 10 0 5 7 4 15 -3
11 -9 15 -9 15 -1 0 7 5 9 10 6 6 -3 10 -1 10 5 0 7 7 10 15 7 8 -4 17 -1 21
5 4 7 9 6 15 -3 6 -9 9 -10 9 -2 0 6 8 14 18 16 9 3 18 5 20 6 2 0 0 -5 -5
-11z m2867 -389 c0 -5 5 -7 10 -4 6 3 10 1 10 -4 0 -6 3 -11 8 -10 15 2 52
-14 52 -22 0 -5 9 -9 20 -9 11 0 20 -4 20 -10 0 -5 7 -10 15 -10 8 0 15 -5 15
-11 0 -5 4 -8 9 -5 5 3 12 -1 15 -10 3 -8 10 -12 16 -9 5 3 10 1 10 -5 0 -6 5
-8 10 -5 6 3 10 -1 10 -9 0 -9 4 -16 9 -16 10 0 91 -78 109 -105 7 -11 10 -13
6 -5 -4 8 -3 11 1 7 5 -4 11 -20 13 -35 2 -15 9 -30 15 -35 9 -7 9 -10 0 -14
-7 -2 -13 -12 -13 -22 0 -16 -21 -43 -52 -66 -8 -5 -25 -19 -38 -30 -14 -12
-20 -14 -15 -5 5 9 0 8 -13 -4 -12 -11 -25 -16 -28 -13 -4 3 -13 -1 -22 -9 -8
-9 -23 -13 -33 -11 -10 3 -17 0 -16 -7 1 -6 -6 -10 -15 -8 -10 2 -18 -2 -18
-8 0 -5 -5 -10 -11 -10 -5 0 -7 6 -3 13 6 9 5 9 -7 0 -8 -7 -30 -15 -49 -18
-19 -3 -40 -11 -47 -17 -8 -7 -13 -7 -13 0 0 6 -15 4 -40 -4 -41 -14 -84 -9
-58 7 11 7 11 9 -1 9 -10 0 -10 5 3 25 9 14 14 25 10 25 -4 0 -1 7 6 15 7 8 9
15 5 15 -4 0 -1 8 6 17 12 15 12 16 -1 8 -13 -8 -13 -7 -1 8 7 9 11 26 8 37
-3 11 0 18 6 17 7 -1 12 15 12 41 0 23 3 42 6 42 3 0 5 18 5 41 -1 22 2 43 5
45 4 2 6 49 5 104 -1 97 0 100 22 100 12 0 22 -5 22 -11z m-2173 -278 c20 7
28 6 35 -3 6 -10 8 -10 8 1 0 10 3 11 13 2 8 -6 16 -8 19 -5 4 3 19 -1 36 -10
16 -8 32 -12 36 -9 3 4 6 2 6 -4 0 -6 15 -20 33 -32 17 -11 28 -21 24 -21 -5
0 -2 -7 5 -15 33 -36 39 -46 33 -55 -3 -6 -1 -10 5 -10 7 0 10 -7 6 -15 -3 -8
0 -15 5 -15 6 0 9 -9 6 -20 -3 -11 -1 -23 5 -26 5 -3 3 -13 -7 -24 -11 -13
-13 -20 -5 -25 8 -5 5 -11 -7 -21 -17 -14 -17 -14 0 -8 15 6 14 0 -8 -32 -43
-65 -58 -84 -62 -80 -3 2 -13 -4 -24 -15 -10 -10 -26 -19 -34 -19 -8 0 -15 -4
-15 -8 0 -11 -8 -12 -97 -16 -52 -2 -76 1 -84 10 -6 8 -15 11 -20 8 -5 -3 -9
-1 -9 4 0 6 -11 13 -25 16 -14 4 -24 10 -21 15 6 10 -30 41 -39 33 -3 -4 -3 1
0 10 4 9 0 18 -9 21 -9 4 -16 16 -16 27 0 11 -5 20 -10 20 -7 0 -7 7 1 21 9
17 8 20 -1 14 -10 -6 -12 -1 -8 19 3 15 1 26 -6 26 -7 0 -8 3 -1 8 6 4 11 22
12 40 0 19 9 39 19 48 11 9 13 12 5 9 -21 -11 18 45 56 81 18 18 33 29 33 27
0 -3 8 1 17 8 14 12 16 12 9 -1 -4 -8 0 -6 8 4 9 11 16 16 16 11 0 -5 6 -3 12
3 8 8 14 9 16 3 2 -7 12 -7 29 0z m-507 -162 c0 10 3 11 14 2 8 -6 18 -11 22
-9 5 1 18 -3 29 -9 20 -11 27 -13 44 -13 5 0 9 -13 9 -30 -1 -18 -5 -27 -12
-23 -8 5 -8 3 0 -8 6 -8 12 -32 13 -53 1 -21 6 -47 11 -56 5 -10 6 -20 3 -24
-3 -3 -1 -6 5 -6 6 0 9 -7 5 -17 -4 -11 -3 -14 5 -9 8 5 12 0 12 -14 0 -14 4
-19 12 -14 8 5 9 2 5 -10 -4 -10 -1 -19 8 -22 8 -4 15 -11 15 -16 0 -6 13 -22
30 -38 16 -15 26 -30 23 -34 -3 -3 1 -6 10 -6 10 0 25 -8 35 -17 10 -10 27
-20 37 -21 11 -2 23 -8 26 -14 3 -5 16 -10 27 -11 12 -1 22 -5 22 -9 0 -4 7
-5 15 -2 9 4 15 0 15 -7 0 -11 3 -11 10 1 5 8 10 10 10 3 0 -12 17 -12 37 0 8
5 11 3 8 -5 -4 -9 2 -14 15 -14 11 0 20 3 20 7 0 9 21 6 39 -5 10 -6 12 -5 7
2 -5 8 2 12 19 12 31 0 125 39 125 51 0 5 3 8 8 8 20 -3 32 3 32 17 0 8 4 13
9 9 5 -3 16 4 24 15 7 11 17 17 20 13 4 -3 7 1 7 11 0 9 4 15 9 11 5 -3 12 4
16 15 3 11 11 20 16 20 6 0 8 4 5 9 -3 5 1 12 10 15 8 3 12 10 9 16 -3 5 -1
10 5 10 6 0 8 5 5 10 -3 6 -1 10 4 10 6 0 11 6 11 13 0 16 67 11 89 -7 12 -9
13 -8 6 4 -7 12 -6 13 6 4 8 -5 25 -10 39 -9 14 1 33 -3 43 -7 11 -6 17 -5 17
3 0 8 4 8 13 2 6 -6 20 -9 30 -8 9 2 17 0 17 -4 0 -5 25 -8 56 -7 37 1 58 -3
61 -11 4 -9 10 -10 23 -3 9 5 20 6 24 3 3 -4 19 -7 34 -8 15 -1 33 -4 39 -8 6
-4 13 -2 15 4 2 5 11 7 21 4 9 -4 15 -11 12 -15 -7 -11 22 -6 32 5 4 4 2 5 -6
0 -9 -5 -12 -4 -7 3 7 12 36 5 36 -9 0 -6 9 -5 20 1 11 6 20 7 20 2 0 -5 17
-8 38 -7 20 1 43 -2 50 -8 8 -6 12 -5 12 4 0 11 2 11 10 -1 5 -8 10 -10 10 -3
0 13 37 6 59 -11 12 -9 13 -8 7 3 -6 9 -5 12 5 9 8 -3 23 -1 34 5 18 9 19 9 6
-7 -13 -15 -12 -16 13 -7 19 8 26 7 26 -2 0 -8 3 -8 8 -2 7 10 16 10 75 2 12
-2 30 1 40 5 11 6 17 5 17 -3 0 -8 4 -8 15 1 8 7 15 8 15 3 0 -10 63 -8 80 2
5 3 12 0 15 -5 5 -8 14 -5 26 6 17 15 19 16 14 2 -5 -12 -2 -16 12 -13 10 2
22 4 26 4 5 1 5 5 2 11 -7 11 23 2 43 -13 9 -7 11 -6 7 4 -4 10 2 14 18 14 13
0 24 -6 24 -13 0 -7 -6 -11 -13 -8 -8 3 -11 -2 -9 -14 2 -11 -2 -23 -9 -27 -6
-5 -23 -24 -36 -43 -14 -19 -40 -50 -60 -69 -19 -19 -29 -31 -21 -26 10 5 12
4 7 -3 -4 -7 -14 -12 -22 -12 -8 0 -13 -4 -10 -8 3 -5 -5 -15 -16 -23 -12 -8
-32 -24 -45 -36 -13 -12 -23 -20 -23 -18 0 3 -9 -3 -19 -12 -54 -51 -69 -62
-81 -65 -7 -2 -24 -13 -38 -25 -13 -13 -28 -20 -32 -18 -4 3 -11 -2 -14 -11
-4 -9 -9 -14 -12 -11 -4 3 -13 -1 -21 -9 -8 -8 -19 -12 -24 -9 -5 4 -9 1 -9
-5 0 -6 -4 -8 -10 -5 -5 3 -10 2 -10 -3 0 -6 -12 -13 -27 -17 -15 -3 -31 -11
-34 -17 -4 -6 -21 -11 -38 -10 -17 0 -31 -4 -31 -10 0 -6 -3 -8 -7 -5 -3 4
-11 3 -17 -2 -12 -10 -55 -22 -94 -25 -13 -2 -28 -9 -33 -17 -7 -11 -9 -11 -9
-1 0 8 -5 10 -12 6 -7 -5 -25 -7 -40 -6 -15 1 -28 -1 -28 -5 0 -5 -15 -7 -32
-7 -18 1 -38 -3 -45 -8 -7 -5 -14 -5 -18 2 -3 6 -12 7 -18 3 -16 -10 -127 -10
-127 0 0 4 -9 3 -20 -3 -11 -6 -20 -7 -20 -2 0 5 -14 8 -32 6 -17 -2 -36 0
-42 4 -6 4 -30 7 -53 7 -24 0 -43 4 -43 8 0 5 -4 5 -10 2 -5 -3 -10 -1 -10 5
0 6 -4 9 -9 6 -5 -3 -22 -2 -37 3 -16 5 -42 12 -57 15 -15 4 -25 11 -22 15 3
5 -4 7 -15 4 -12 -3 -20 0 -20 6 0 7 -4 9 -10 6 -5 -3 -10 -2 -10 4 0 5 -9 8
-20 6 -11 -2 -20 0 -20 6 0 5 -7 9 -16 9 -8 0 -13 4 -9 9 3 6 -4 8 -15 6 -11
-2 -20 1 -20 7 0 5 -7 7 -16 4 -8 -3 -12 -2 -9 4 3 6 -1 10 -9 10 -9 0 -16 5
-16 10 0 6 -8 10 -18 10 -10 0 -28 9 -40 20 -12 11 -24 20 -28 20 -4 0 -13 8
-21 18 -10 11 -12 12 -8 2 5 -12 4 -12 -7 1 -7 8 -21 18 -30 22 -10 3 -18 11
-18 17 0 6 -4 8 -10 5 -5 -3 -10 1 -10 10 0 9 -4 14 -9 11 -5 -3 -12 1 -15 10
-3 8 -10 12 -16 9 -5 -3 -10 0 -10 7 0 16 -36 49 -44 41 -3 -4 -6 -1 -6 6 0 7
-16 29 -36 49 -58 60 -64 68 -64 80 0 7 -8 12 -17 12 -15 0 -16 2 -3 10 13 8
12 10 -3 10 -10 0 -16 4 -13 9 3 5 -1 11 -9 15 -8 3 -15 15 -15 26 0 11 -7 23
-15 26 -8 4 -13 10 -10 14 3 4 -2 10 -10 14 -9 3 -12 12 -8 22 4 11 2 15 -4
11 -13 -8 -37 37 -30 57 4 11 1 13 -11 9 -9 -3 -14 -3 -10 2 4 4 3 14 -3 22
-6 7 -8 13 -4 13 4 0 2 7 -5 15 -7 8 -9 22 -6 31 4 11 2 15 -8 11 -7 -3 -13 0
-13 6 1 42 -4 58 -15 51 -10 -6 -10 -5 -1 8 7 8 12 17 10 19 -1 2 4 -2 11 -10
9 -11 12 -12 12 -2z"/>
<path d="M1990 1549 c0 -5 5 -7 10 -4 6 3 10 8 10 11 0 2 -4 4 -10 4 -5 0 -10
-5 -10 -11z"/>
<path d="M3342 1150 c-18 -11 -31 -24 -28 -29 3 -5 -1 -12 -10 -15 -8 -3 -13
-10 -10 -15 3 -5 -1 -11 -9 -15 -8 -3 -12 -12 -9 -21 3 -8 1 -15 -6 -15 -6 0
-8 -5 -5 -10 3 -6 -1 -17 -9 -26 -9 -9 -14 -20 -11 -25 4 -5 1 -9 -4 -9 -6 0
-11 -7 -11 -16 0 -9 -5 -12 -12 -8 -7 5 -9 2 -6 -8 11 -27 -24 -64 -58 -63
-25 1 -30 -3 -26 -15 5 -13 3 -13 -10 -2 -13 10 -17 10 -21 0 -4 -10 -6 -10
-6 -1 -1 9 -8 10 -26 3 -14 -5 -32 -7 -40 -4 -9 4 -15 1 -15 -7 0 -9 -3 -10
-11 -2 -7 7 -22 6 -51 -4 -22 -7 -45 -12 -51 -10 -6 2 -19 -5 -29 -15 -21 -21
-26 -108 -5 -108 9 0 9 -2 -1 -9 -11 -6 -10 -10 5 -16 10 -5 22 -7 26 -6 5 1
6 -3 2 -9 -3 -5 1 -13 9 -16 9 -3 14 -10 11 -14 -3 -5 4 -11 15 -15 11 -3 20
-11 20 -16 0 -6 3 -8 8 -6 4 3 12 -1 19 -8 10 -11 10 -15 0 -18 -8 -4 -8 -6 2
-6 8 -1 27 -14 43 -31 15 -16 34 -30 41 -30 8 0 7 -4 -3 -10 -8 -5 -10 -10 -4
-10 6 0 11 -7 11 -15 0 -8 -4 -12 -9 -9 -4 3 -9 -11 -9 -30 -2 -45 -2 -48 -13
-65 -7 -11 -6 -12 5 -6 12 8 12 6 1 -8 -8 -9 -11 -21 -7 -27 3 -5 2 -10 -2
-10 -5 0 -8 -12 -7 -27 0 -16 -6 -34 -15 -41 -14 -11 -14 -11 2 -6 13 5 16 2
11 -10 -3 -9 -11 -13 -17 -9 -6 4 -7 1 -1 -8 5 -8 7 -23 6 -34 -2 -17 -1 -17
7 -5 9 13 11 12 11 -5 0 -11 13 -29 28 -40 18 -12 24 -14 17 -4 -5 8 -3 7 7
-3 9 -10 18 -14 20 -8 1 5 13 11 26 13 13 2 27 8 30 13 4 5 14 9 22 9 8 0 17
2 20 5 19 19 52 42 45 31 -5 -8 7 -4 26 9 19 14 36 25 39 25 3 0 4 3 3 7 -1 3
5 5 15 3 9 -1 20 2 23 7 12 19 54 16 103 -9 28 -14 54 -30 57 -35 3 -5 9 -9
13 -9 20 3 26 0 21 -9 -3 -5 0 -7 8 -4 8 3 21 -2 30 -10 8 -8 17 -12 21 -9 3
3 8 -1 11 -9 4 -9 17 -14 35 -13 24 1 28 -1 19 -12 -9 -10 -4 -10 24 2 19 8
38 11 41 7 4 -3 4 2 0 12 -5 14 -4 17 4 12 8 -5 12 0 12 14 0 12 3 19 8 17 4
-3 8 6 8 19 1 13 -3 24 -10 24 -6 0 -5 4 3 9 12 8 12 12 3 24 -7 8 -12 19 -11
23 5 29 -2 64 -12 58 -8 -5 -8 -1 0 14 7 14 8 23 1 27 -5 3 -10 19 -10 35 0
15 -6 31 -12 33 -10 4 -10 6 0 6 9 1 10 6 3 19 -9 17 10 58 22 46 3 -3 8 4 12
15 3 12 10 19 15 16 5 -3 16 7 24 22 8 15 15 24 16 20 0 -4 21 13 46 37 25 25
51 43 57 39 6 -3 7 -1 3 6 -4 6 -3 17 2 24 24 29 13 107 -14 107 -8 0 -14 6
-14 14 0 9 -10 13 -30 11 -16 -1 -30 0 -30 4 0 6 -30 11 -90 14 -14 1 -28 6
-32 12 -5 6 -8 4 -8 -5 0 -13 -1 -13 -10 0 -9 13 -10 13 -10 0 0 -11 -2 -12
-8 -3 -4 7 -23 14 -41 15 -18 1 -36 8 -38 15 -3 7 -9 10 -14 7 -8 -5 -14 27
-9 51 1 5 -2 7 -6 3 -7 -8 -34 35 -34 54 0 5 -7 16 -15 25 -8 8 -13 19 -10 24
4 5 1 9 -5 9 -7 0 -10 7 -6 15 3 9 0 15 -9 15 -18 0 -20 20 -2 21 6 0 2 5 -10
11 -13 6 -23 15 -23 20 0 4 -7 8 -16 8 -8 0 -13 4 -10 8 10 17 -51 11 -82 -8z
m72 -271 c-3 -5 1 -19 8 -31 7 -13 11 -26 10 -30 -1 -5 3 -8 8 -8 6 0 10 -9
10 -21 0 -11 5 -17 10 -14 6 3 10 -3 10 -14 0 -19 10 -26 33 -22 4 0 7 -2 7
-6 0 -5 10 -9 23 -10 58 -4 100 -13 115 -25 10 -8 13 -9 9 -1 -4 6 -3 14 2 17
5 4 8 -1 7 -10 -1 -9 -27 -39 -57 -67 -30 -28 -47 -47 -39 -42 13 8 13 6 1 -8
-7 -9 -17 -15 -21 -12 -4 2 -5 -8 -3 -23 4 -21 2 -24 -6 -12 -7 9 -11 10 -11
3 0 -6 5 -15 10 -18 8 -5 7 -11 -1 -21 -6 -8 -7 -14 -2 -14 5 0 9 -8 10 -17 1
-16 7 -49 13 -78 1 -5 2 -14 1 -18 -1 -9 -84 33 -89 46 -2 4 -8 5 -13 1 -5 -3
-9 0 -9 7 0 7 -3 9 -7 6 -3 -4 -12 1 -20 11 -9 10 -11 11 -7 2 6 -12 5 -13 -7
-3 -12 10 -24 8 -60 -9 -24 -12 -46 -26 -47 -30 -2 -5 -8 -6 -13 -2 -5 3 -9 0
-9 -6 0 -6 -4 -9 -9 -5 -6 3 -14 -3 -20 -12 -6 -10 -11 -14 -11 -9 0 5 -7 2
-17 -5 -15 -13 -15 -12 -6 6 6 11 12 34 14 50 2 17 8 36 14 44 8 12 7 13 -5 6
-12 -6 -13 -5 -2 6 15 16 16 33 1 24 -6 -4 -5 3 3 14 11 18 11 23 -2 31 -8 5
-11 10 -6 10 5 0 3 6 -3 13 -6 8 -8 17 -4 20 3 4 2 7 -4 7 -14 0 -53 35 -53
48 0 6 -9 14 -20 17 -22 7 -25 22 -9 45 9 12 10 11 5 -5 -5 -17 -4 -18 6 -5 7
8 27 15 43 14 17 0 36 4 44 10 11 8 13 8 7 -1 -5 -9 -2 -11 8 -7 9 3 14 10 11
14 -3 5 6 7 20 5 14 -1 23 0 21 3 -6 6 20 32 32 32 5 0 8 11 7 25 -2 14 1 23
6 19 5 -3 9 0 9 6 0 6 4 8 10 5 5 -3 7 0 4 9 -7 19 11 53 30 53 8 0 13 -4 10
-8z"/>
</g>
</svg>
